# xmcd
#
# Track frame offsets: 
#        150
#        15555
#        29610
#        51953
#        72290
#        86763
#        111515
#        131493
#        149233
#        163120
#
# Disc length: 2374 seconds
#
# Revision: 6
# Processed by: cddbd v1.5.2PL0 Copyright (c) Steve Scherf et al.
# Submitted via: ExactAudioCopyFreeDBPlugin 1.0
#
DISCID=9709440a
DTITLE=The Jacksons - The Jacksons
DYEAR=1976
DGENRE=Soul
TTITLE0=Enjoy Yourself
TTITLE1=Think Happy
TTITLE2=Good Times
TTITLE3=Keep on Dancing
TTITLE4=Blues Away
TTITLE5=Show You the Way to Go
TTITLE6=Living Together
TTITLE7=Strength of One Man
TTITLE8=Dreamer
TTITLE9=Style of Life
EXTD=YEAR: 1976
EXTT0=
EXTT1=
EXTT2=
EXTT3=
EXTT4=
EXTT5=
EXTT6=
EXTT7=
EXTT8=
EXTT9=
PLAYORDER=
